<svg xmlns="http://www.w3.org/2000/svg" viewBox="0 0 768 768"><defs><style>.ac94f9cd-0aac-45df-a53b-b40f6e163985{fill:#ff7f11;}.b97eea79-dd79-45de-b603-b10c20a27a82{fill:#fff;}.b563cb44-f881-4f8e-8416-a4ac36ad36f7{fill:none;stroke:#fff;stroke-miterlimit:10;stroke-width:20px;}</style></defs><title>Naamloos-1</title><g id="bc9954ed-9760-4873-8045-48e48d9f6991" data-name="Laag 1"><rect class="ac94f9cd-0aac-45df-a53b-b40f6e163985" width="768" height="768" rx="50"/><rect class="b97eea79-dd79-45de-b603-b10c20a27a82" x="26" y="62" width="329" height="75" rx="13.72"/><rect class="b97eea79-dd79-45de-b603-b10c20a27a82" x="26" y="200" width="329" height="75" rx="13.72"/><rect class="b97eea79-dd79-45de-b603-b10c20a27a82" x="26" y="338" width="329" height="75" rx="13.72"/><rect class="b97eea79-dd79-45de-b603-b10c20a27a82" x="416" y="62" width="329" height="75" rx="13.72"/><rect class="b97eea79-dd79-45de-b603-b10c20a27a82" x="416" y="615" width="329" height="75" rx="13.72"/><rect class="b97eea79-dd79-45de-b603-b10c20a27a82" x="416" y="338" width="329" height="75" rx="13.72"/><rect class="b97eea79-dd79-45de-b603-b10c20a27a82" x="416" y="481" width="329" height="75" rx="13.72"/><rect class="b97eea79-dd79-45de-b603-b10c20a27a82" x="416" y="200" width="329" height="75" rx="13.72"/></g><g id="eb24ac33-0617-4355-a624-86f3c39b5b85" data-name="rustLogo"><circle class="b563cb44-f881-4f8e-8416-a4ac36ad36f7" cx="176.5" cy="578.5" r="111.5"/><path class="b97eea79-dd79-45de-b603-b10c20a27a82" d="M158,496H88.2c-1.69,0-3.38-.05-5.07,0-3.88.12-4.8.41-6.33,0-1.35-.36-2.93-1.2-5.07-3.8-3.11-3.78-4.94-8.28-6.33-13.93-2.25-9.19-.85-11.3-3.8-15.2-.65-.87-3.48-4.6-7.6-5.07-.18,0-.14,0-2.53,0H37.64c-10.66,0-16,0-17.07-1.29C16.15,451.5,28.48,436,30.92,436H46.43c13.54,0,14.83.05,16.71-1.29.48-.34,4-2.93,3.86-6.42s-4.13-5.85-5.14-6.43c-4.6-2.66-8.25-1.29-20.57-1.29H33.57c-.36-.1-2.18-.61-2.57,0-.12.19,0,.38,0,1.29,0,.43,0,.85,0,1.28V472H50v24l-110-1V472H-5V420H-49.72c-4.69.36-5.4.76-6.39,0-5.23-4,4.18-23,6.39-23H.22c23.11,0,46.23.28,69.35,0a39.69,39.69,0,0,1,15.13,2.52c3.87,1.49,9.79,3.85,13.87,10.09a23.89,23.89,0,0,1,3.78,13.87c-.06,1.47-.49,11.75-6.31,15.13-2.62,1.52-4.85,3.68-7.56,5-.29.15-1.26.62-1.26,1.26s1,1.14,1.26,1.26c2.76,1.41,7,7.63,8.82,11.35,2.88,6,.61,8.49,3.79,11.35a11.06,11.06,0,0,0,6.3,2.52,9.72,9.72,0,0,0,6.31-1.26,8.77,8.77,0,0,0,2.52-2.52c3.21-4.9,1.07-12.24,2.52-12.61H158Z" transform="translate(128 128)"/><path class="b97eea79-dd79-45de-b603-b10c20a27a82" d="M47.48,385.45,45,382.76,6.87,341c20.79,2.5,31.31,1.93,37,.53a7.19,7.19,0,0,1,3.31.05c6.39,1.64,11.12,12.79,8,17.18-2.75,3.82-10.1.64-12.69,5.08a7.11,7.11,0,0,0,0,6.34c.1.23,1.69,3.48,5.08,3.81a6.67,6.67,0,0,0,6.34-3.81,6.92,6.92,0,0,0,0-6.34c-2.47-4.2-8.9-1.53-11.42-5.08-3.14-4.42,1.81-15.68,8.23-17.13a7,7,0,0,1,3.2.05c5.6,1.47,16.77,2.39,40.6.59Z" transform="translate(128 128)"/><path class="b97eea79-dd79-45de-b603-b10c20a27a82" d="M-17.84,434l-3.32,1.51-51.47,23.39c8.81-19,11.51-29.19,11.93-35a7,7,0,0,1,1.07-3.13c3.53-5.57,15.6-6.62,18.8-2.25,2.77,3.79-2.52,9.8.9,13.63a7.09,7.09,0,0,0,6,2c.24,0,3.82-.52,5.18-3.65a6.67,6.67,0,0,0-1.66-7.21,6.92,6.92,0,0,0-6-2c-4.76,1.06-4.21,8-8.36,9.3-5.17,1.61-14.36-6.58-13.75-13.12a6.85,6.85,0,0,1,1-3c3.13-4.87,7.45-15.21,13.1-38.43Q-31.11,405-17.84,434Z" transform="translate(128 128)"/><path class="b97eea79-dd79-45de-b603-b10c20a27a82" d="M8.69,507.48c.13,1.21.27,2.42.4,3.62l6.34,56.18C.08,553-8.77,547.31-14.16,545.12a7.08,7.08,0,0,1-2.65-2c-4.2-5.08-1.47-16.89,3.67-18.57,4.47-1.47,8.55,5.42,13.25,3.35a7.13,7.13,0,0,0,3.73-5.14c.05-.24.68-3.8-1.87-6.06a6.69,6.69,0,0,0-7.37-.65,7,7,0,0,0-3.73,5.13c-.47,4.86,6.31,6.48,6.26,10.82-.06,5.42-10.69,11.63-16.72,9a6.88,6.88,0,0,1-2.57-1.92c-3.66-4.48-12.16-11.79-32.5-24.34Z" transform="translate(128 128)"/><path class="b97eea79-dd79-45de-b603-b10c20a27a82" d="M90.2,504l3.57.73,55.39,11.33c-18.29,10.2-26.47,16.84-30.22,21.29a7,7,0,0,1-2.7,1.91c-6.13,2.43-16.52-3.82-16.53-9.23,0-4.7,7.79-6.45,7.28-11.57a7.13,7.13,0,0,0-3.73-5.13c-.21-.12-3.41-1.82-6.34-.1a6.69,6.69,0,0,0-2.9,6.81,7,7,0,0,0,3.73,5.14c4.47,1.94,8.1-4,12.22-2.61,5.14,1.73,7.76,13.76,3.42,18.69a6.94,6.94,0,0,1-2.62,1.85c-5.4,2.1-15,7.92-33.19,23.39Q83.9,535.28,90.2,504Z" transform="translate(128 128)"/><path class="b97eea79-dd79-45de-b603-b10c20a27a82" d="M113.29,427.57l1.8-3.17L143,375.23c4,20.55,7.84,30.38,10.91,35.32a7.06,7.06,0,0,1,1,3.16c.42,6.58-8.73,14.53-13.89,12.87-4.47-1.44-3.72-9.41-8.74-10.5a7.14,7.14,0,0,0-6,2c-.18.17-2.78,2.68-2,6a6.66,6.66,0,0,0,5.58,4.85,6.91,6.91,0,0,0,6-2c3.24-3.65-1.29-8.94,1.3-12.43,3.24-4.35,15.48-3.12,18.84,2.53a6.82,6.82,0,0,1,.94,3.06c.33,5.78,2.91,16.69,12,38.79Z" transform="translate(128 128)"/></g></svg>