<?xml version="1.0" encoding="UTF-8"?>
<svg xmlns="http://www.w3.org/2000/svg" xmlns:xlink="http://www.w3.org/1999/xlink" width="200pt" height="200pt" viewBox="0 0 200 200" version="1.1">
<g id="surface1">
<path style=" stroke:none;fill-rule:nonzero;fill:rgb(100%,49.803922%,6.666667%);fill-opacity:1;" d="M 13.019531 0 L 186.980469 0 C 194.171875 0 200 5.828125 200 13.019531 L 200 186.980469 C 200 194.171875 194.171875 200 186.980469 200 L 13.019531 200 C 5.828125 200 0 194.171875 0 186.980469 L 0 13.019531 C 0 5.828125 5.828125 0 13.019531 0 Z M 13.019531 0 "/>
<path style=" stroke:none;fill-rule:nonzero;fill:rgb(100%,100%,100%);fill-opacity:1;" d="M 10.34375 16.144531 L 88.875 16.144531 C 90.847656 16.144531 92.449219 17.746094 92.449219 19.71875 L 92.449219 32.105469 C 92.449219 34.078125 90.847656 35.675781 88.875 35.675781 L 10.34375 35.675781 C 8.371094 35.675781 6.769531 34.078125 6.769531 32.105469 L 6.769531 19.71875 C 6.769531 17.746094 8.371094 16.144531 10.34375 16.144531 Z M 10.34375 16.144531 "/>
<path style=" stroke:none;fill-rule:nonzero;fill:rgb(100%,100%,100%);fill-opacity:1;" d="M 10.34375 52.082031 L 88.875 52.082031 C 90.847656 52.082031 92.449219 53.683594 92.449219 55.65625 L 92.449219 68.042969 C 92.449219 70.015625 90.847656 71.613281 88.875 71.613281 L 10.34375 71.613281 C 8.371094 71.613281 6.769531 70.015625 6.769531 68.042969 L 6.769531 55.65625 C 6.769531 53.683594 8.371094 52.082031 10.34375 52.082031 Z M 10.34375 52.082031 "/>
<path style=" stroke:none;fill-rule:nonzero;fill:rgb(100%,100%,100%);fill-opacity:1;" d="M 10.34375 88.019531 L 88.875 88.019531 C 90.847656 88.019531 92.449219 89.621094 92.449219 91.59375 L 92.449219 103.980469 C 92.449219 105.953125 90.847656 107.550781 88.875 107.550781 L 10.34375 107.550781 C 8.371094 107.550781 6.769531 105.953125 6.769531 103.980469 L 6.769531 91.59375 C 6.769531 89.621094 8.371094 88.019531 10.34375 88.019531 Z M 10.34375 88.019531 "/>
<path style=" stroke:none;fill-rule:nonzero;fill:rgb(100%,100%,100%);fill-opacity:1;" d="M 111.90625 16.144531 L 190.4375 16.144531 C 192.410156 16.144531 194.011719 17.746094 194.011719 19.71875 L 194.011719 32.105469 C 194.011719 34.078125 192.410156 35.675781 190.4375 35.675781 L 111.90625 35.675781 C 109.933594 35.675781 108.332031 34.078125 108.332031 32.105469 L 108.332031 19.71875 C 108.332031 17.746094 109.933594 16.144531 111.90625 16.144531 Z M 111.90625 16.144531 "/>
<path style=" stroke:none;fill-rule:nonzero;fill:rgb(100%,100%,100%);fill-opacity:1;" d="M 111.90625 160.15625 L 190.4375 160.15625 C 192.410156 160.15625 194.011719 161.757812 194.011719 163.730469 L 194.011719 176.113281 C 194.011719 178.085938 192.410156 179.6875 190.4375 179.6875 L 111.90625 179.6875 C 109.933594 179.6875 108.332031 178.085938 108.332031 176.113281 L 108.332031 163.730469 C 108.332031 161.757812 109.933594 160.15625 111.90625 160.15625 Z M 111.90625 160.15625 "/>
<path style=" stroke:none;fill-rule:nonzero;fill:rgb(100%,100%,100%);fill-opacity:1;" d="M 111.90625 88.019531 L 190.4375 88.019531 C 192.410156 88.019531 194.011719 89.621094 194.011719 91.59375 L 194.011719 103.980469 C 194.011719 105.953125 192.410156 107.550781 190.4375 107.550781 L 111.90625 107.550781 C 109.933594 107.550781 108.332031 105.953125 108.332031 103.980469 L 108.332031 91.59375 C 108.332031 89.621094 109.933594 88.019531 111.90625 88.019531 Z M 111.90625 88.019531 "/>
<path style=" stroke:none;fill-rule:nonzero;fill:rgb(100%,100%,100%);fill-opacity:1;" d="M 111.90625 125.261719 L 190.4375 125.261719 C 192.410156 125.261719 194.011719 126.859375 194.011719 128.832031 L 194.011719 141.21875 C 194.011719 143.191406 192.410156 144.792969 190.4375 144.792969 L 111.90625 144.792969 C 109.933594 144.792969 108.332031 143.191406 108.332031 141.21875 L 108.332031 128.832031 C 108.332031 126.859375 109.933594 125.261719 111.90625 125.261719 Z M 111.90625 125.261719 "/>
<path style=" stroke:none;fill-rule:nonzero;fill:rgb(100%,100%,100%);fill-opacity:1;" d="M 111.90625 52.082031 L 190.4375 52.082031 C 192.410156 52.082031 194.011719 53.683594 194.011719 55.65625 L 194.011719 68.042969 C 194.011719 70.015625 192.410156 71.613281 190.4375 71.613281 L 111.90625 71.613281 C 109.933594 71.613281 108.332031 70.015625 108.332031 68.042969 L 108.332031 55.65625 C 108.332031 53.683594 109.933594 52.082031 111.90625 52.082031 Z M 111.90625 52.082031 "/>
<path style="fill:none;stroke-width:20;stroke-linecap:butt;stroke-linejoin:miter;stroke:rgb(100%,100%,100%);stroke-opacity:1;stroke-miterlimit:10;" d="M 288 578.505 C 288 640.08 238.08 690 176.505 690 C 114.915 690 64.995 640.08 64.995 578.505 C 64.995 516.915 114.915 466.995 176.505 466.995 C 238.08 466.995 288 516.915 288 578.505 Z M 288 578.505 " transform="matrix(0.260417,0,0,0.260417,0,0)"/>
<path style=" stroke:none;fill-rule:nonzero;fill:rgb(100%,100%,100%);fill-opacity:1;" d="M 74.480469 162.5 L 56.300781 162.5 C 55.863281 162.5 55.421875 162.488281 54.980469 162.5 C 53.972656 162.53125 53.730469 162.605469 53.332031 162.5 C 52.980469 162.40625 52.570312 162.1875 52.011719 161.511719 C 51.203125 160.527344 50.726562 159.355469 50.363281 157.882812 C 49.777344 155.488281 50.144531 154.941406 49.375 153.925781 C 49.207031 153.699219 48.46875 152.726562 47.394531 152.605469 C 47.347656 152.605469 47.359375 152.605469 46.738281 152.605469 L 43.136719 152.605469 C 40.359375 152.605469 38.96875 152.605469 38.691406 152.269531 C 37.539062 150.910156 40.75 146.875 41.386719 146.875 L 45.425781 146.875 C 48.949219 146.875 49.285156 146.886719 49.777344 146.539062 C 49.902344 146.449219 50.816406 145.777344 50.78125 144.867188 C 50.746094 143.957031 49.707031 143.34375 49.441406 143.191406 C 48.246094 142.5 47.292969 142.855469 44.085938 142.855469 L 42.074219 142.855469 C 41.980469 142.832031 41.507812 142.699219 41.40625 142.855469 C 41.375 142.90625 41.40625 142.957031 41.40625 143.191406 C 41.40625 143.304688 41.40625 143.414062 41.40625 143.527344 L 41.40625 156.25 L 46.355469 156.25 L 46.355469 162.5 L 17.707031 162.238281 L 17.707031 156.25 L 32.03125 156.25 L 32.03125 142.707031 L 20.386719 142.707031 C 19.164062 142.800781 18.980469 142.90625 18.722656 142.707031 C 17.359375 141.667969 19.808594 136.71875 20.386719 136.71875 L 33.390625 136.71875 C 39.410156 136.71875 45.429688 136.792969 51.449219 136.71875 C 52.792969 136.679688 54.132812 136.902344 55.390625 137.375 C 56.398438 137.761719 57.941406 138.378906 59.003906 140.003906 C 59.695312 141.078125 60.039062 142.339844 59.988281 143.613281 C 59.972656 143.996094 59.859375 146.675781 58.34375 147.554688 C 57.660156 147.949219 57.082031 148.511719 56.375 148.855469 C 56.300781 148.894531 56.046875 149.019531 56.046875 149.183594 C 56.046875 149.351562 56.308594 149.480469 56.375 149.511719 C 57.09375 149.878906 58.199219 151.5 58.671875 152.46875 C 59.421875 154.03125 58.832031 154.679688 59.660156 155.425781 C 60.125 155.808594 60.699219 156.039062 61.300781 156.082031 C 61.867188 156.160156 62.449219 156.046875 62.941406 155.753906 C 63.203125 155.582031 63.425781 155.359375 63.597656 155.097656 C 64.433594 153.820312 63.878906 151.910156 64.253906 151.8125 L 74.480469 151.8125 Z M 74.480469 162.5 "/>
<path style=" stroke:none;fill-rule:nonzero;fill:rgb(100%,100%,100%);fill-opacity:1;" d="M 45.699219 133.710938 L 45.050781 133.011719 L 35.121094 122.136719 C 40.535156 122.785156 43.277344 122.636719 44.757812 122.273438 C 45.042969 122.210938 45.335938 122.214844 45.621094 122.285156 C 47.285156 122.714844 48.515625 125.617188 47.703125 126.761719 C 46.988281 127.753906 45.074219 126.925781 44.398438 128.082031 C 44.140625 128.601562 44.140625 129.214844 44.398438 129.734375 C 44.425781 129.792969 44.839844 130.640625 45.722656 130.726562 C 46.421875 130.757812 47.074219 130.367188 47.371094 129.734375 C 47.640625 129.214844 47.640625 128.601562 47.371094 128.082031 C 46.730469 126.988281 45.054688 127.683594 44.398438 126.761719 C 43.582031 125.609375 44.871094 122.675781 46.542969 122.300781 C 46.816406 122.238281 47.101562 122.242188 47.375 122.3125 C 48.832031 122.695312 51.742188 122.933594 57.949219 122.464844 Z M 45.699219 133.710938 "/>
<path style=" stroke:none;fill-rule:nonzero;fill:rgb(100%,100%,100%);fill-opacity:1;" d="M 28.6875 146.355469 L 27.824219 146.746094 L 14.417969 152.839844 C 16.714844 147.890625 17.417969 145.238281 17.527344 143.722656 C 17.550781 143.433594 17.648438 143.15625 17.804688 142.910156 C 18.722656 141.457031 21.867188 141.183594 22.699219 142.324219 C 23.421875 143.308594 22.042969 144.875 22.933594 145.871094 C 23.34375 146.28125 23.921875 146.472656 24.496094 146.394531 C 24.558594 146.394531 25.492188 146.257812 25.847656 145.441406 C 26.09375 144.785156 25.925781 144.046875 25.414062 143.566406 C 25.007812 143.148438 24.425781 142.957031 23.851562 143.042969 C 22.613281 143.320312 22.753906 145.128906 21.675781 145.464844 C 20.328125 145.886719 17.933594 143.753906 18.09375 142.050781 C 18.117188 141.773438 18.207031 141.503906 18.355469 141.269531 C 19.167969 140 20.292969 137.308594 21.765625 131.261719 C 24.078125 136.289062 26.382812 141.320312 28.6875 146.355469 Z M 28.6875 146.355469 "/>
<path style=" stroke:none;fill-rule:nonzero;fill:rgb(100%,100%,100%);fill-opacity:1;" d="M 35.597656 165.488281 C 35.628906 165.804688 35.667969 166.121094 35.699219 166.433594 L 37.351562 181.0625 C 33.355469 177.34375 31.050781 175.863281 29.644531 175.292969 C 29.378906 175.175781 29.140625 174.996094 28.957031 174.769531 C 27.863281 173.449219 28.574219 170.371094 29.910156 169.933594 C 31.074219 169.550781 32.136719 171.347656 33.363281 170.808594 C 33.878906 170.539062 34.238281 170.042969 34.332031 169.46875 C 34.347656 169.40625 34.511719 168.480469 33.847656 167.890625 C 33.300781 167.453125 32.542969 167.386719 31.925781 167.722656 C 31.410156 167.984375 31.046875 168.480469 30.957031 169.058594 C 30.832031 170.324219 32.597656 170.746094 32.585938 171.875 C 32.570312 173.285156 29.800781 174.902344 28.230469 174.21875 C 27.972656 174.105469 27.742188 173.9375 27.5625 173.71875 C 26.609375 172.550781 24.394531 170.648438 19.097656 167.378906 Z M 35.597656 165.488281 "/>
<path style=" stroke:none;fill-rule:nonzero;fill:rgb(100%,100%,100%);fill-opacity:1;" d="M 56.824219 164.582031 L 57.753906 164.773438 L 72.175781 167.722656 C 67.414062 170.378906 65.285156 172.109375 64.308594 173.269531 C 64.117188 173.488281 63.875 173.660156 63.605469 173.765625 C 62.007812 174.398438 59.300781 172.769531 59.300781 171.363281 C 59.300781 170.136719 61.328125 169.683594 61.195312 168.347656 C 61.097656 167.777344 60.738281 167.28125 60.222656 167.011719 C 60.167969 166.980469 59.335938 166.539062 58.574219 166.988281 C 57.988281 167.371094 57.691406 168.070312 57.816406 168.761719 C 57.910156 169.335938 58.269531 169.832031 58.789062 170.097656 C 59.953125 170.605469 60.898438 169.058594 61.972656 169.417969 C 63.308594 169.871094 63.992188 173.003906 62.863281 174.285156 C 62.675781 174.5 62.441406 174.664062 62.179688 174.769531 C 60.773438 175.316406 58.273438 176.832031 53.535156 180.859375 C 54.632812 175.4375 55.730469 170.015625 56.824219 164.582031 Z M 56.824219 164.582031 "/>
<path style=" stroke:none;fill-rule:nonzero;fill:rgb(100%,100%,100%);fill-opacity:1;" d="M 62.835938 144.679688 L 63.304688 143.855469 L 70.574219 131.050781 C 71.613281 136.402344 72.613281 138.960938 73.414062 140.246094 C 73.566406 140.496094 73.652344 140.777344 73.675781 141.070312 C 73.785156 142.785156 71.402344 144.855469 70.058594 144.421875 C 68.894531 144.046875 69.089844 141.972656 67.78125 141.6875 C 67.207031 141.609375 66.628906 141.800781 66.21875 142.207031 C 66.171875 142.253906 65.496094 142.90625 65.699219 143.769531 C 65.882812 144.445312 66.457031 144.945312 67.152344 145.035156 C 67.726562 145.121094 68.308594 144.929688 68.714844 144.511719 C 69.558594 143.5625 68.378906 142.183594 69.050781 141.277344 C 69.894531 140.144531 73.082031 140.464844 73.957031 141.933594 C 74.101562 142.175781 74.1875 142.449219 74.203125 142.730469 C 74.289062 144.238281 74.960938 147.078125 77.328125 152.832031 Z M 62.835938 144.679688 "/>
</g>
</svg>
